<svg width="92" height="92" viewBox="0 0 92 92" fill="none" xmlns="http://www.w3.org/2000/svg">
<rect width="92" height="92" rx="24" fill="white"/>
<path d="M55.2322 51.6965C57.5843 51.6965 59.9101 52.2849 61.9581 53.3979C62.3301 53.5984 62.6714 53.8372 63.0199 54.0672C66.3811 47.4873 68.155 40.5283 68.155 33.7393C68.155 33.3578 68.155 32.9639 68.1428 32.5701C68.1182 32.0163 67.7243 31.5362 67.1704 31.4132C59.7366 29.7886 53.0043 25.7639 47.712 19.7824L46.9243 18.8839C46.6904 18.6132 46.3582 18.4655 46.0012 18.4655C45.6197 18.4163 45.3243 18.6009 45.0904 18.8593L43.8843 20.1886C38.8627 25.7147 32.5366 29.5301 25.5951 31.2286L24.7951 31.4254C24.2535 31.5486 23.872 32.0286 23.8597 32.5824C23.4166 49.887 33.632 62.3301 38.0382 66.8839C39.2311 68.1087 40.5611 69.3261 41.8258 70.3324C41.3514 68.9016 41.0783 67.3961 41.0783 65.8504C41.0783 58.0457 47.4275 51.6965 55.2322 51.6965Z" fill="url(#paint0_linear_0_14544)"/>
<path d="M60.7822 55.5608C59.0837 54.6377 57.1637 54.1577 55.2314 54.1577C48.7822 54.1577 43.5391 59.4008 43.5391 65.85C43.5391 68.0285 44.1299 70.1577 45.2622 71.9792C47.416 75.4623 51.133 77.5423 55.2314 77.5423C61.6683 77.5423 66.9237 72.2992 66.9237 65.85C66.9237 61.5423 64.5729 57.6039 60.7822 55.5608ZM61.2196 64.2932L52.0747 71.4098L48.9527 66.5264C48.5862 65.9537 48.7538 65.1929 49.3265 64.8269C49.8999 64.4603 50.6613 64.6292 51.0261 65.2007L52.6937 67.8089L59.7076 62.3509C60.243 61.9333 61.0171 62.0288 61.4347 62.5661C61.8524 63.1027 61.7556 63.8762 61.2196 64.2932Z" fill="url(#paint1_linear_0_14544)"/>
<defs>
<linearGradient id="paint0_linear_0_14544" x1="46.0004" y1="18.4575" x2="46.0004" y2="70.3324" gradientUnits="userSpaceOnUse">
<stop stop-color="#EF8080"/>
<stop offset="1" stop-color="#F0145A"/>
</linearGradient>
<linearGradient id="paint1_linear_0_14544" x1="55.2314" y1="54.1577" x2="55.2314" y2="77.5423" gradientUnits="userSpaceOnUse">
<stop stop-color="#EF8080"/>
<stop offset="1" stop-color="#F0145A"/>
</linearGradient>
</defs>
</svg>
