<svg width="92" height="92" viewBox="0 0 92 92" fill="none" xmlns="http://www.w3.org/2000/svg">
<rect width="92" height="92" rx="24" fill="white"/>
<path fill-rule="evenodd" clip-rule="evenodd" d="M67.4512 49.0764V66.3716C67.4512 69.4649 65.0269 72 62.0631 72H29.9701C27.0063 72 24.582 69.4649 24.582 66.3716V49.0764H41.2481V56.5872L46.0166 59.7207L50.7851 56.5872V49.0764H67.4512Z" fill="url(#paint0_linear_0_14511)"/>
<path fill-rule="evenodd" clip-rule="evenodd" d="M42.9189 49.0764V55.6849L46.017 57.7205L49.1151 55.6849V49.0764H42.9189Z" fill="url(#paint1_linear_0_14511)"/>
<path fill-rule="evenodd" clip-rule="evenodd" d="M26.0732 29.1426H65.9597C67.8421 29.1426 69.3805 30.8507 69.3805 32.938V43.1912C69.3805 45.2786 67.8421 46.9867 65.9597 46.9867H50.3137H41.7192H26.0732C24.1908 46.9867 22.6523 45.2786 22.6523 43.1912V32.938C22.6523 30.8507 24.1908 29.1426 26.0732 29.1426Z" fill="url(#paint2_linear_0_14511)"/>
<path fill-rule="evenodd" clip-rule="evenodd" d="M37.7122 19.9543H54.3218C55.8649 19.9543 57.1277 21.2171 57.1277 22.7603V27.1377H53.5702V24.5508C53.5702 23.8535 53.0001 23.281 52.3027 23.281H39.7313C39.0339 23.281 38.4638 23.8535 38.4638 24.5508V27.1377H34.9062V22.7603C34.9062 21.2171 36.169 19.9543 37.7122 19.9543Z" fill="url(#paint3_linear_0_14511)"/>
<defs>
<linearGradient id="paint0_linear_0_14511" x1="46.0166" y1="49.0764" x2="46.0166" y2="72" gradientUnits="userSpaceOnUse">
<stop stop-color="#EF8080"/>
<stop offset="1" stop-color="#F0145A"/>
</linearGradient>
<linearGradient id="paint1_linear_0_14511" x1="46.017" y1="49.0764" x2="46.017" y2="57.7205" gradientUnits="userSpaceOnUse">
<stop stop-color="#EF8080"/>
<stop offset="1" stop-color="#F0145A"/>
</linearGradient>
<linearGradient id="paint2_linear_0_14511" x1="46.0164" y1="29.1426" x2="46.0164" y2="46.9867" gradientUnits="userSpaceOnUse">
<stop stop-color="#EF8080"/>
<stop offset="1" stop-color="#F0145A"/>
</linearGradient>
<linearGradient id="paint3_linear_0_14511" x1="46.017" y1="19.9543" x2="46.017" y2="27.1377" gradientUnits="userSpaceOnUse">
<stop stop-color="#EF8080"/>
<stop offset="1" stop-color="#F0145A"/>
</linearGradient>
</defs>
</svg>
